<?xml version="1.0" encoding="UTF-8"?>
<svg version="1.1" xmlns="http://www.w3.org/2000/svg" width="256" height="256">
<path d="M0 0 C84.48 0 168.96 0 256 0 C256 84.48 256 168.96 256 256 C171.52 256 87.04 256 0 256 C0 171.52 0 87.04 0 0 Z " fill="#FBFBFB" transform="translate(0,0)"/>
<path d="M0 0 C84.48 0 168.96 0 256 0 C256.061875 35.145 256.061875 35.145 256.125 71 C256.14320801 78.37214844 256.16141602 85.74429688 256.18017578 93.33984375 C256.18920898 102.40820313 256.18920898 102.40820313 256.19088745 106.66625977 C256.19273539 109.61225455 256.20016829 112.55817576 256.21115112 115.50415039 C256.22504456 119.28189822 256.22895049 123.0595417 256.22614455 126.8373127 C256.2270023 128.85102342 256.23763709 130.86472307 256.2488575 132.87840271 C256.17862269 164.26464737 246.00281755 194.65425692 226 219 C225.26547607 219.91652344 225.26547607 219.91652344 224.51611328 220.8515625 C222.94314477 222.81033508 221.35046715 224.75115359 219.75 226.6875 C219.25459717 227.30069092 218.75919434 227.91388184 218.2487793 228.5456543 C216.16317477 231.01071471 214.39631701 232.81848076 211.44140625 234.171875 C207.81853622 233.91682495 206.59918805 232.19016012 204.1875 229.5625 C203.00220703 228.29599609 203.00220703 228.29599609 201.79296875 227.00390625 C201.20128906 226.34261719 200.60960937 225.68132812 200 225 C195.99480267 226.58781045 193.4308942 229.41201482 190.53515625 232.48046875 C189.47780239 233.5728359 188.41984121 234.66461548 187.36132812 235.75585938 C185.7045017 237.47475214 184.05278207 239.19776396 182.41137695 240.93139648 C180.82019807 242.60710898 179.21081897 244.26344732 177.59765625 245.91796875 C177.11104019 246.44182663 176.62442413 246.96568451 176.12306213 247.50541687 C174.70727539 248.94213867 174.70727539 248.94213867 172 251 C167.70396698 250.87643724 165.62964818 249.22113909 162.625 246.25 C161.91601562 245.57453125 161.20703125 244.8990625 160.4765625 244.203125 C159 242 159 242 159.2734375 239.234375 C159.51320312 238.49703125 159.75296875 237.7596875 160 237 C161.6875 236.25 161.6875 236.25 164 236 C166.75 237.9375 166.75 237.9375 169 240 C172.84002915 238.43210843 175.1518524 236.00696298 177.9921875 233.02734375 C178.95398943 232.03538276 179.91624307 231.04385958 180.87890625 230.05273438 C182.38065169 228.49523228 183.87814716 226.93418452 185.36767578 225.36499023 C186.81458897 223.84527788 188.27696524 222.34188246 189.7421875 220.83984375 C190.6069873 219.93613037 191.47178711 219.03241699 192.36279297 218.10131836 C195.36837036 215.70648364 197.18194198 215.10865463 201 215 C203.5546875 216.87109375 203.5546875 216.87109375 205.875 219.4375 C206.65617188 220.28183594 207.43734375 221.12617188 208.2421875 221.99609375 C209.11230469 222.98802734 209.11230469 222.98802734 210 224 C211.69513502 222.35623271 213.35580929 220.69414081 215 219 C215.77923828 218.19755859 215.77923828 218.19755859 216.57421875 217.37890625 C239.74046227 192.2686423 248.27521343 158.77928115 247.21337891 125.45166016 C246.04831875 106.60541245 236.89798842 87.43277725 225 73 C224.20335937 72.01386719 224.20335937 72.01386719 223.390625 71.0078125 C222.28083454 69.65486571 221.1446911 68.32354908 220 67 C217.03 67.99 217.03 67.99 214 69 C215.65490398 73.73358009 218.20712612 77.75100903 220.8125 82 C229.01817746 95.66680892 233.3873381 108.67099561 233.3125 124.6875 C233.31048584 125.83984131 233.30847168 126.99218262 233.30639648 128.17944336 C233.07325406 147.92674594 233.07325406 147.92674594 229 152 C226.5 152.125 226.5 152.125 224 152 C223 151 223 151 222.8125 148.0625 C222.84203007 145.12130491 223.30421363 142.53973066 224 139.6875 C228.58231962 118.09455504 221.59181911 98.14584342 210 80 C208.09802322 77.35472195 206.18061471 74.7335535 204.1875 72.15625 C203 70 203 70 203.09765625 67.890625 C204.20007479 65.58079568 205.32399545 64.67364963 207.4375 63.25 C208.05496094 62.82203125 208.67242187 62.3940625 209.30859375 61.953125 C211 61 211 61 213 61 C208.46856478 56.18535008 203.40985524 52.07556406 197.75390625 48.6328125 C196 47 196 47 195.50390625 44.57421875 C196.14935243 41.22501379 197.43398836 40.08721972 199.9375 37.8125 C202.87557386 35.21289233 202.87557386 35.21289233 205 32 C204.25838623 31.92483154 203.51677246 31.84966309 202.75268555 31.7722168 C199.39604778 31.42427103 196.04192555 31.05613835 192.6875 30.6875 C191.52025391 30.56955078 190.35300781 30.45160156 189.15039062 30.33007812 C188.03212891 30.20439453 186.91386719 30.07871094 185.76171875 29.94921875 C184.73006592 29.83924561 183.69841309 29.72927246 182.63549805 29.6159668 C179.77603545 28.94765516 178.68955764 28.37511208 177 26 C177.10444765 21.82209415 178.6314359 18.16357879 180.05859375 14.28125 C180.42138428 13.29189453 180.7841748 12.30253906 181.15795898 11.28320312 C181.43583252 10.52974609 181.71370605 9.77628906 182 9 C156.7060327 8.10770781 156.7060327 8.10770781 133.05859375 15.97265625 C130.03983234 17.47917286 128.3173493 17.69111444 125 17 C123.50755789 16.25519492 122.03001319 15.48029448 120.5625 14.6875 C106.10644902 7.18310883 88.86087118 8.31282747 73 8 C73.44472656 9.03640625 73.88945313 10.0728125 74.34765625 11.140625 C74.91986314 12.51016935 75.49144517 13.87997488 76.0625 15.25 C76.35705078 15.93191406 76.65160156 16.61382813 76.95507812 17.31640625 C78.46851327 20.98426083 79.39114637 23.23794481 78 27 C74.99012707 30.00987293 71.37305317 29.69100946 67.3125 30.0625 C65.72515977 30.21903477 64.1379182 30.37657361 62.55078125 30.53515625 C61.78588379 30.61008301 61.02098633 30.68500977 60.23291016 30.76220703 C57.14077862 31.09150247 54.07442936 31.53492568 51 32 C51.72316406 32.81404297 51.72316406 32.81404297 52.4609375 33.64453125 C53.09257813 34.35996094 53.72421875 35.07539062 54.375 35.8125 C55.00148437 36.52019531 55.62796875 37.22789063 56.2734375 37.95703125 C60.01935292 42.38941533 60.01935292 42.38941533 59.921875 45.46484375 C58.71299675 48.78925893 57.20800441 49.6765534 54.25 51.5625 C53.35023437 52.15546875 52.45046875 52.7484375 51.5234375 53.359375 C50.69070312 53.90078125 49.85796875 54.4421875 49 55 C46.01864679 57.12914496 46.01864679 57.12914496 44 59 C44 59.66 44 60.32 44 61 C45.78965547 62.36277086 45.78965547 62.36277086 48 63.625 C49.11375 64.29402344 49.11375 64.29402344 50.25 64.9765625 C50.8275 65.31429687 51.405 65.65203125 52 66 C51.86728973 72.10467262 49.60921424 75.23665027 46.0390625 80.0703125 C33.69809476 97.80158799 27.85898769 118.43006339 31.578125 139.9765625 C37.06109189 162.85548796 50.76772427 182.41623798 67 199 C69.91643675 197.68667859 71.21065594 196.76773832 73.4375 194.3125 C74.283125 193.549375 75.12875 192.78625 76 192 C78.8125 192.1875 78.8125 192.1875 81 193 C81.32421875 195.13671875 81.32421875 195.13671875 81 198 C79.32229164 200.17720121 77.77005785 201.93032949 75.8125 203.8125 C75.32974609 204.31458984 74.84699219 204.81667969 74.34960938 205.33398438 C72.12448697 207.52923937 70.48268211 208.89796375 67.39453125 209.55078125 C58.753199 207.56313386 51.41685995 194.50490697 46.22216797 187.61914062 C45.19139028 186.25355581 44.14613467 184.89891699 43.09765625 183.546875 C26.91293651 161.76414631 20.49911944 139.00345252 23 112 C25.12079672 98.11768557 32.77248439 83.89322629 40.96875 72.6015625 C42.18045977 71.03721662 42.18045977 71.03721662 42 69 C39.03 68.01 39.03 68.01 36 67 C16.98530398 86.6683262 8.18991573 112.74420723 8.47631836 139.64624023 C8.77493202 149.78186389 10.05906334 159.2967244 13 169 C13.20367187 169.67353516 13.40734375 170.34707031 13.6171875 171.04101562 C19.32486191 189.13293422 28.7814326 206.31269158 41.88671875 220.0625 C42.58958008 220.805 42.58958008 220.805 43.30664062 221.5625 C44.60559984 222.91474043 45.93282992 224.23966074 47.26171875 225.5625 C49 228 49 228 48.76953125 230.8125 C48.51558594 231.534375 48.26164062 232.25625 48 233 C45.81640625 233.8046875 45.81640625 233.8046875 43 234 C20.61141722 216.52770949 5.20998877 182.44064624 1 155 C-0.01411597 146.50468267 -0.137012 138.07998898 -0.11352539 129.5324707 C-0.11321837 128.08935899 -0.11335372 126.64624713 -0.11389065 125.20313549 C-0.11411456 121.37082063 -0.10835783 117.53853758 -0.10128021 113.70623016 C-0.09554605 110.09789439 -0.09531497 106.48956599 -0.09460449 102.88122559 C-0.08937645 92.35831291 -0.07541519 81.83540604 -0.0625 71.3125 C-0.041875 47.779375 -0.02125 24.24625 0 0 Z " fill="#0A0A0A" transform="translate(0,0)"/>
<path d="M0 0 C1.32359308 0.53756514 2.64385628 1.08339067 3.9609375 1.63671875 C4.95468384 2.05219971 4.95468384 2.05219971 5.96850586 2.47607422 C7.84977567 3.27523484 9.72014406 4.0999139 11.58984375 4.92578125 C18.76589602 7.18627881 25.37944325 3.53512382 32.125 1 C34.08527364 0.26905051 36.04618723 -0.46018562 38.0078125 -1.1875 C38.87035645 -1.51105469 39.73290039 -1.83460937 40.62158203 -2.16796875 C46.64531048 -4.27522255 51.57178388 -4.84987564 57.75 -2.6875 C73.56782909 6.09002366 86.7418773 26.76529432 92.15625 43.59375 C96.60253986 61.54358683 85.42486921 80.5228338 76.50097656 95.51904297 C74.56012793 98.67276658 72.61213377 101.81770069 70.57958984 104.91333008 C67.58394747 109.57951338 66.1315925 113.56835601 65 119 C64.608125 119.9075 64.21625 120.815 63.8125 121.75 C62.84632333 124.42556618 63.06894568 125.3553391 64 128 C65.19405709 129.60244408 65.19405709 129.60244408 66.72265625 131.015625 C67.26083984 131.54414063 67.79902344 132.07265625 68.35351562 132.6171875 C68.91748047 133.15601563 69.48144531 133.69484375 70.0625 134.25 C70.63033203 134.80429688 71.19816406 135.35859375 71.78320312 135.9296875 C73.18212469 137.29334214 74.59019114 138.64760417 76 140 C90.06583305 134.11792436 100.11063338 112.77007427 107 100 C108.66611905 99.957279 110.33382885 99.95936168 112 100 C112.33 100.33 112.66 100.66 113 101 C111.64162876 119.90009635 91.70008954 138.29991046 79 151 C75.24646363 150.72579367 73.44117443 148.79211022 70.890625 146.18359375 C70.13652344 145.41982422 69.38242188 144.65605469 68.60546875 143.86914062 C67.82816406 143.06669922 67.05085938 142.26425781 66.25 141.4375 C65.45722656 140.63119141 64.66445312 139.82488281 63.84765625 138.99414062 C61.89152954 137.00266222 59.94274281 135.00452279 58 133 C57.236875 133.309375 56.47375 133.61875 55.6875 133.9375 C53.81210323 134.67893593 51.91315348 135.36228217 50 136 C49.9071875 136.99 49.9071875 136.99 49.8125 138 C48.0323315 144.57292986 43.89609174 150.4999296 38 154 C26.58035076 159.95664701 14.94966704 161.01442526 2.5625 157.5 C-4.92076376 154.60850761 -10.79253524 149.82022079 -14.5625 142.6875 C-16 139 -16 139 -16 136 C-16.680625 135.835 -17.36125 135.67 -18.0625 135.5 C-25.3404538 131.78359806 -29.45005811 124.52967135 -32 117 C-32.37125 115.14375 -32.37125 115.14375 -32.75 113.25 C-33.89519512 108.25190267 -36.76906259 104.38825262 -39.49609375 100.109375 C-42.71579548 94.93348262 -45.57901194 89.56881063 -48.4375 84.1875 C-48.96972168 83.209021 -49.50194336 82.23054199 -50.05029297 81.22241211 C-52.94713169 75.71616784 -54.83279784 71.25917665 -55 65 C-54 64 -54 64 -51.4375 63.9375 C-50.633125 63.958125 -49.82875 63.97875 -49 64 C-48.52691406 64.95777344 -48.05382813 65.91554688 -47.56640625 66.90234375 C-43.82418782 74.45090557 -40.02504319 81.9691451 -36.125 89.4375 C-35.7441626 90.17669678 -35.3633252 90.91589355 -34.97094727 91.67749023 C-33.18088329 95.48438851 -33.18088329 95.48438851 -30 98 C-29.49210937 96.96101563 -28.98421875 95.92203125 -28.4609375 94.8515625 C-18.38949522 74.38949522 -18.38949522 74.38949522 -14 70 C-11.375 70.375 -11.375 70.375 -9 71 C-9.44348824 76.85554816 -11.12542572 80.44591435 -14.3125 85.3125 C-20.60004019 95.43366385 -24.60215879 103.70107519 -23 116 C-22.00193503 118.9428925 -20.65999959 121.38883276 -19 124 C-18.32118934 125.32719189 -17.6513658 126.65912535 -17 128 C-9.41964967 128.54145359 -2.92587008 126.92238859 4.328125 124.97265625 C7.19376138 124.21356746 10.09309714 123.58138057 13 123 C13 119.04 13 115.08 13 111 C12.195625 110.814375 11.39125 110.62875 10.5625 110.4375 C4.3718276 107.93950938 -1.35452937 103.66571596 -5 98 C-5.5 95 -5.5 95 -5 92 C-2.20646653 89.08247848 -0.5244552 88.0775183 3.50170898 87.48242188 C4.81985596 87.47791016 6.13800293 87.47339844 7.49609375 87.46875 C8.20725845 87.4649231 8.91842316 87.46109619 9.65113831 87.45715332 C11.14968284 87.45444123 12.64827528 87.46175332 14.14672852 87.47851562 C16.42768121 87.49990791 18.70547365 87.47871111 20.98632812 87.453125 C22.44792355 87.45576903 23.90951703 87.46089556 25.37109375 87.46875 C26.69036865 87.47326172 28.00964355 87.47777344 29.36889648 87.48242188 C33.56864677 88.08105501 35.75660785 89.30512044 39 92 C39.8125 94.75 39.8125 94.75 39 98 C35.77914319 103.20449561 32.30253256 106.05566629 26.625 108.25 C24.01368418 109.25319061 24.01368418 109.25319061 22 111 C20.83219779 115.03953401 20.77333283 118.81999078 21 123 C24.32685572 124.02259909 27.66212959 125.01402963 31 126 C31.66773438 126.21269531 32.33546875 126.42539063 33.0234375 126.64453125 C38.96833942 128.38786747 44.84820295 128.18455391 51 128 C51.28617187 127.41089844 51.57234375 126.82179687 51.8671875 126.21484375 C53 124 53 124 54.0703125 122.31640625 C57.77779603 116.15099845 57.93712992 110.02847442 57 103 C55.37481923 97.56189511 52.47910199 92.82543146 49.6640625 87.93359375 C49.25663818 87.22178955 48.84921387 86.50998535 48.42944336 85.77661133 C47.61541944 84.36635129 46.78849216 82.96344359 45.94750977 81.5690918 C43.80111489 77.91127908 42.43292864 75.38422337 43 71 C44.65 70.67 46.3 70.34 48 70 C51.74438677 74.3191066 54.39648495 79.01256597 57.125 84 C57.56714844 84.7940625 58.00929688 85.588125 58.46484375 86.40625 C60.55650947 90.19778907 62.53310879 93.91248292 64 98 C66.60907763 95.65173424 68.11233265 93.23040212 69.7421875 90.1328125 C70.50245239 88.68974731 70.50245239 88.68974731 71.27807617 87.2175293 C72.06855347 85.68672729 72.06855347 85.68672729 72.875 84.125 C73.41294189 83.08448486 73.95088379 82.04396973 74.50512695 80.97192383 C84.10027305 63.23006934 84.10027305 63.23006934 83.625 43.8125 C77.97755839 30.11938815 67.63686484 11.87621574 54 5 C44.9744963 3.23029339 34.22044679 8.72538843 26.0234375 12.265625 C24 13 24 13 21 13 C21.01047363 13.83249268 21.02094727 14.66498535 21.03173828 15.52270508 C21.06584442 18.61449156 21.09091076 21.70618208 21.10986328 24.7980957 C21.12485495 26.79319618 21.15026731 28.78820946 21.17578125 30.78320312 C21.18222656 32.03681641 21.18867188 33.29042969 21.1953125 34.58203125 C21.20578613 35.73936768 21.21625977 36.8967041 21.22705078 38.08911133 C21 41 21 41 19 44 C16.5625 43.625 16.5625 43.625 14 43 C12.59087904 40.18175808 12.88816447 37.82748718 12.90234375 34.6796875 C12.90717773 32.79443359 12.90717773 32.79443359 12.91210938 30.87109375 C12.92467773 28.89302734 12.92467773 28.89302734 12.9375 26.875 C12.94251511 25.53515789 12.94707799 24.195314 12.95117188 22.85546875 C12.96298914 19.57026794 12.97946383 16.28515603 13 13 C12.10200684 12.86859619 11.20401367 12.73719238 10.27880859 12.60180664 C7.47325445 12.08686316 5.16703112 11.43171554 2.5390625 10.37109375 C1.73726562 10.05849609 0.93546875 9.74589844 0.109375 9.42382812 C-1.54147701 8.76841911 -3.1899527 8.10699141 -4.8359375 7.43945312 C-10.15906593 5.37930005 -14.28381218 4.3608482 -20 5 C-33.08324024 11.46351123 -43.22735044 29.04119251 -49 42 C-50.03931108 45.24784712 -50.84856702 48.39146807 -51.46484375 51.7421875 C-52 54 -52 54 -54 56 C-57.53571429 55.46428571 -57.53571429 55.46428571 -59 54 C-60.02246364 36.44408174 -46.98012495 20.43605313 -36 8 C-24.48729064 -4.88152406 -16.03529594 -5.78178971 0 0 Z " fill="#0A0A0A" transform="translate(111,59)"/>
<path d="M0 0 C21.45 0 42.9 0 65 0 C65 41.58 65 83.16 65 126 C64.67 126 64.34 126 64 126 C63.85304688 125.04222656 63.70609375 124.08445312 63.5546875 123.09765625 C58.50807023 92.32149995 42.97486821 65.9972768 18 47 C17.01 46.34 16.02 45.68 15 45 C16.66063671 39.98331214 19.33657085 37.58244122 23.22265625 34.16015625 C25.43297213 31.47377233 25.53902094 29.39585011 26 26 C24.88757935 25.87939209 24.88757935 25.87939209 23.75268555 25.75634766 C20.39663164 25.38768922 17.04211753 25.00649833 13.6875 24.625 C11.93663086 24.43550781 11.93663086 24.43550781 10.15039062 24.2421875 C9.03212891 24.11328125 7.91386719 23.984375 6.76171875 23.8515625 C5.73006592 23.73635254 4.69841309 23.62114258 3.63549805 23.50244141 C1 23 1 23 -2 21 C-0.75312408 20.03760548 0.49764969 19.08025991 1.75 18.125 C2.79414063 17.32449219 2.79414063 17.32449219 3.859375 16.5078125 C9.7297523 12.37283871 14.92246824 12.16427669 22 13 C29.14021728 15.20608092 33.310164 18.57254374 37 25 C39.57138678 32.71416033 38.07790148 42.05047656 37 50 C38.65 50.33 40.3 50.66 42 51 C45.35105621 39.39098386 47.01272353 29.96648978 41 19 C36.39001138 11.66767826 30.25871074 8.28117842 22 6 C15.10274128 4.95435145 9.39376963 6.47648765 3 9 C2.01 9.33 1.02 9.66 0 10 C0 6.7 0 3.4 0 0 Z " fill="#FBFBFB" transform="translate(191,0)"/>
<path d="M0 0 C15.04239464 6.16491584 27.04714237 30.7392319 32.96484375 44.83251953 C44.33553531 73.85022517 42.00828433 105.54114766 29.90234375 133.984375 C24.62622008 145.89673035 18.43659222 156.78650874 10.14453125 166.87890625 C9.41000732 167.79542969 9.41000732 167.79542969 8.66064453 168.73046875 C7.08767602 170.68924133 5.4949984 172.63005984 3.89453125 174.56640625 C3.39912842 175.17959717 2.90372559 175.79278809 2.39331055 176.42456055 C0.30770602 178.88962096 -1.45915174 180.69738701 -4.4140625 182.05078125 C-8.03693253 181.7957312 -9.2562807 180.06906637 -11.66796875 177.44140625 C-12.85326172 176.17490234 -12.85326172 176.17490234 -14.0625 174.8828125 C-14.65417969 174.22152344 -15.24585938 173.56023437 -15.85546875 172.87890625 C-19.86066608 174.4667167 -22.42457455 177.29092107 -25.3203125 180.359375 C-26.37766636 181.45174215 -27.43562754 182.54352173 -28.49414062 183.63476562 C-30.15096705 185.35365839 -31.80268668 187.07667021 -33.4440918 188.81030273 C-35.03527068 190.48601523 -36.64464978 192.14235357 -38.2578125 193.796875 C-38.74442856 194.32073288 -39.23104462 194.84459076 -39.73240662 195.38432312 C-41.14819336 196.82104492 -41.14819336 196.82104492 -43.85546875 198.87890625 C-48.15150177 198.75534349 -50.22582057 197.10004534 -53.23046875 194.12890625 C-53.93945312 193.4534375 -54.6484375 192.77796875 -55.37890625 192.08203125 C-56.85546875 189.87890625 -56.85546875 189.87890625 -56.58203125 187.11328125 C-56.34226563 186.3759375 -56.1025 185.63859375 -55.85546875 184.87890625 C-54.16796875 184.12890625 -54.16796875 184.12890625 -51.85546875 183.87890625 C-49.10546875 185.81640625 -49.10546875 185.81640625 -46.85546875 187.87890625 C-43.0154396 186.31101468 -40.70361635 183.88586923 -37.86328125 180.90625 C-36.90147932 179.91428901 -35.93922568 178.92276583 -34.9765625 177.93164062 C-33.47481706 176.37413853 -31.97732159 174.81309077 -30.48779297 173.24389648 C-29.04087978 171.72418413 -27.57850351 170.22078871 -26.11328125 168.71875 C-24.81608154 167.36317993 -24.81608154 167.36317993 -23.49267578 165.98022461 C-20.48709839 163.58538989 -18.67352677 162.98756088 -14.85546875 162.87890625 C-12.30078125 164.75 -12.30078125 164.75 -9.98046875 167.31640625 C-8.80871094 168.58291016 -8.80871094 168.58291016 -7.61328125 169.875 C-6.74316406 170.86693359 -6.74316406 170.86693359 -5.85546875 171.87890625 C-4.16033373 170.23513896 -2.49965946 168.57304706 -0.85546875 166.87890625 C-0.33597656 166.34394531 0.18351562 165.80898437 0.71875 165.2578125 C23.88499352 140.14754855 32.41974468 106.6581874 31.35791016 73.33056641 C30.19285 54.4843187 21.04251967 35.3116835 9.14453125 20.87890625 C8.34789062 19.89277344 8.34789062 19.89277344 7.53515625 18.88671875 C6.42536579 17.53377196 5.28922235 16.20245533 4.14453125 14.87890625 C2.16453125 15.53890625 0.18453125 16.19890625 -1.85546875 16.87890625 C-0.20056477 21.61248634 2.35165737 25.62991528 4.95703125 29.87890625 C13.16270871 43.54571517 17.53186935 56.54990186 17.45703125 72.56640625 C17.45501709 73.71874756 17.45300293 74.87108887 17.45092773 76.05834961 C17.21778531 95.80565219 17.21778531 95.80565219 13.14453125 99.87890625 C10.64453125 100.00390625 10.64453125 100.00390625 8.14453125 99.87890625 C7.14453125 98.87890625 7.14453125 98.87890625 6.95703125 95.94140625 C6.98656132 93.00021116 7.44874488 90.41863691 8.14453125 87.56640625 C12.72685087 65.97346129 5.73635036 46.02474967 -5.85546875 27.87890625 C-7.75744553 25.2336282 -9.67485404 22.61245975 -11.66796875 20.03515625 C-12.85546875 17.87890625 -12.85546875 17.87890625 -12.7578125 15.76953125 C-11.65539396 13.45970193 -10.5314733 12.55255588 -8.41796875 11.12890625 C-7.80050781 10.7009375 -7.18304688 10.27296875 -6.546875 9.83203125 C-4.85546875 8.87890625 -4.85546875 8.87890625 -2.85546875 8.87890625 C-3.84546875 7.22890625 -4.83546875 5.57890625 -5.85546875 3.87890625 C-2.42972977 -0.15857184 -2.42972977 -0.15857184 0 0 Z " fill="#0B0B0B" transform="translate(215.85546875,52.12109375)"/>
<path d="M0 0 C21.45 0 42.9 0 65 0 C65 3.3 65 6.6 65 10 C64.34515625 9.71125 63.6903125 9.4225 63.015625 9.125 C54.80714895 5.78595889 47.36981813 4.15351333 38.78515625 7.10546875 C30.38215136 10.97978374 25.46744934 15.3761104 21.625 23.75 C18.52240467 32.30485492 19.19751381 40.79621089 23 49 C25.01097585 52.66781759 27.03470891 56.03470891 30 59 C29.45899382 63.38846916 26.63482461 66.3120999 24 69.6875 C11.13395686 86.75804988 4.39613524 104.98813886 1 126 C0.67 126 0.34 126 0 126 C0 84.42 0 42.84 0 0 Z " fill="#FCFCFC" transform="translate(0,0)"/>
<path d="M0 0 C1.32359308 0.53756514 2.64385628 1.08339067 3.9609375 1.63671875 C4.95468384 2.05219971 4.95468384 2.05219971 5.96850586 2.47607422 C7.84977567 3.27523484 9.72014406 4.0999139 11.58984375 4.92578125 C18.76589602 7.18627881 25.37944325 3.53512382 32.125 1 C34.08527364 0.26905051 36.04618723 -0.46018562 38.0078125 -1.1875 C38.87035645 -1.51105469 39.73290039 -1.83460937 40.62158203 -2.16796875 C46.64531048 -4.27522255 51.57178388 -4.84987564 57.75 -2.6875 C63.78770689 0.55717319 68.36231379 6.05540808 73 11 C72.34 12.32 71.68 13.64 71 15 C70.34 15 69.68 15 69 15 C68.505 16.485 68.505 16.485 68 18 C67.6596875 17.56429687 67.319375 17.12859375 66.96875 16.6796875 C62.58549366 11.29387784 57.87053379 5.75892819 50.8125 4.375 C42.19367128 5.78792274 34.01907266 8.81236064 26.0234375 12.265625 C24 13 24 13 21 13 C21.01047363 13.83249268 21.02094727 14.66498535 21.03173828 15.52270508 C21.06584442 18.61449156 21.09091076 21.70618208 21.10986328 24.7980957 C21.12485495 26.79319618 21.15026731 28.78820946 21.17578125 30.78320312 C21.18222656 32.03681641 21.18867188 33.29042969 21.1953125 34.58203125 C21.20578613 35.73936768 21.21625977 36.8967041 21.22705078 38.08911133 C21 41 21 41 19 44 C16.5625 43.625 16.5625 43.625 14 43 C12.59087904 40.18175808 12.88816447 37.82748718 12.90234375 34.6796875 C12.90717773 32.79443359 12.90717773 32.79443359 12.91210938 30.87109375 C12.92467773 28.89302734 12.92467773 28.89302734 12.9375 26.875 C12.94251511 25.53515789 12.94707799 24.195314 12.95117188 22.85546875 C12.96298914 19.57026794 12.97946383 16.28515603 13 13 C12.10200684 12.86859619 11.20401367 12.73719238 10.27880859 12.60180664 C7.47325445 12.08686316 5.16703112 11.43171554 2.5390625 10.37109375 C1.73726562 10.05849609 0.93546875 9.74589844 0.109375 9.42382812 C-1.54147701 8.76841911 -3.1899527 8.10699141 -4.8359375 7.43945312 C-10.15906593 5.37930005 -14.28381218 4.3608482 -20 5 C-33.08324024 11.46351123 -43.22735044 29.04119251 -49 42 C-50.03931108 45.24784712 -50.84856702 48.39146807 -51.46484375 51.7421875 C-52 54 -52 54 -54 56 C-57.53571429 55.46428571 -57.53571429 55.46428571 -59 54 C-60.02246364 36.44408174 -46.98012495 20.43605313 -36 8 C-24.48729064 -4.88152406 -16.03529594 -5.78178971 0 0 Z " fill="#0C0C0C" transform="translate(111,59)"/>
<path d="M0 0 C4.28746111 0.38176024 6.4014455 1.84783276 9.5 4.75 C10.65822266 5.82894531 10.65822266 5.82894531 11.83984375 6.9296875 C12.55269531 7.61289063 13.26554687 8.29609375 14 9 C14.55816406 9.51820313 15.11632812 10.03640625 15.69140625 10.5703125 C16.84215587 11.66532781 17.9297524 12.82618005 19 14 C19 14.66 19 15.32 19 16 C19.99 16.33 20.98 16.66 22 17 C22 17.66 22 18.32 22 19 C22.5775 19.2475 23.155 19.495 23.75 19.75 C26.3002997 21.16683317 28.01785701 22.87627537 30 25 C32.94621567 23.68576063 34.87250815 22.32050163 37.0234375 19.92578125 C37.57 19.34119141 38.1165625 18.75660156 38.6796875 18.15429688 C39.81218981 16.92394011 40.93461881 15.68423636 42.046875 14.43554688 C42.59601563 13.85482422 43.14515625 13.27410156 43.7109375 12.67578125 C44.44256104 11.8700769 44.44256104 11.8700769 45.18896484 11.0480957 C47 10 47 10 49.90917969 10.06689453 C53.55654193 11.16801763 55.10643742 12.52789075 57.7421875 15.25390625 C58.58007812 16.10791016 59.41796875 16.96191406 60.28125 17.84179688 C61.1371875 18.73962891 61.993125 19.63746094 62.875 20.5625 C63.75414063 21.46419922 64.63328125 22.36589844 65.5390625 23.29492188 C67.7044056 25.51910582 69.85721804 27.75410816 72 30 C75.34307711 28.55802498 77.41506688 26.76530444 79.8984375 24.12109375 C80.62546875 23.36505859 81.3525 22.60902344 82.1015625 21.83007812 C83.61544212 20.23686289 85.1232904 18.63789455 86.625 17.03320312 C92.22128393 11.24411437 92.22128393 11.24411437 96.4765625 9.91015625 C99 10 99 10 100 11 C100.39331055 13.18798828 100.39331055 13.18798828 100 16 C98.2987154 18.21026396 96.67549457 20.04960709 94.70703125 21.9921875 C94.16398849 22.54238556 93.62094574 23.09258362 93.06144714 23.65945435 C91.91170977 24.81696474 90.7555493 25.96812564 89.59350586 27.11328125 C87.81662107 28.87092356 86.07103166 30.65593973 84.32617188 32.4453125 C83.20489659 33.5668781 82.08190489 34.68673091 80.95703125 35.8046875 C80.43599319 36.341008 79.91495514 36.87732849 79.37812805 37.42990112 C77.08015747 39.65580346 75.69757514 40.97168588 72.43164062 41.10424805 C69.34562959 39.70283962 67.50360395 37.95530986 65.13671875 35.52734375 C64.25048828 34.62822266 63.36425781 33.72910156 62.45117188 32.80273438 C61.0831543 31.38444336 61.0831543 31.38444336 59.6875 29.9375 C58.74767724 28.97760179 57.80693111 28.01860671 56.86523438 27.06054688 C54.56757976 24.71576088 52.2797724 22.36215473 50 20 C45.070114 24.11820481 40.58337101 28.43272113 36.2109375 33.14453125 C33.54105408 35.38515779 32.49975694 36.01128069 29 36 C26.31987448 34.24749836 24.17916268 31.99494013 21.94921875 29.7109375 C21.29041214 29.05549957 20.63160553 28.40006165 19.95283508 27.72476196 C18.56305434 26.33468215 17.18074223 24.93710117 15.80541992 23.53271484 C13.69707043 21.38475025 11.56103181 19.26759785 9.41992188 17.15234375 C8.07376101 15.79862272 6.72930079 14.44320798 5.38671875 13.0859375 C4.74619064 12.45239349 4.10566254 11.81884949 3.44572449 11.16610718 C-0.88937917 6.69016634 -0.88937917 6.69016634 -1.46166992 3.11962891 C-1 1 -1 1 0 0 Z " fill="#0D0D0D" transform="translate(55,215)"/>
<path d="M0 0 C3.40162985 1.98132511 5.95541491 4.37952927 8.5625 7.3125 C-0.69360072 9.40258726 -10.01209072 10.34737095 -19.4375 11.3125 C-18.34935818 15.87181424 -17.52391576 18.85257458 -13.9375 21.9375 C-10.64420074 24.79820486 -10.22456246 25.84484385 -8.4375 30.3125 C-12.7275 33.6125 -17.0175 36.9125 -21.4375 40.3125 C-25.5700577 38.24622115 -26.12603107 37.71529047 -28.125 33.875 C-28.54136719 33.09253906 -28.95773438 32.31007812 -29.38671875 31.50390625 C-32.20312291 25.63029015 -32.19977116 19.70105829 -31.4375 13.3125 C-28.99458918 6.95586007 -25.49870397 2.4104487 -19.4375 -0.6875 C-13.27966752 -2.74011083 -5.92760512 -2.80543143 0 0 Z " fill="#F6F6F6" transform="translate(58.4375,14.6875)"/>
<path d="M0 0 C4.72699071 1.59957349 9.4692895 2.8759054 14.3125 4.0625 C15.03606689 4.24119629 15.75963379 4.41989258 16.50512695 4.60400391 C18.23206585 5.02977902 19.95970838 5.45269857 21.6875 5.875 C20.88951532 11.68033854 18.23478391 14.380408 13.6875 17.875 C5.74828461 22.52115274 -5.28237738 21.81377084 -14.09765625 20.44140625 C-19.6727451 18.90180195 -24.03291414 15.65772938 -27.3125 10.875 C-28 8.1484375 -28 8.1484375 -28.3125 5.875 C-27.48842651 5.66351318 -27.48842651 5.66351318 -26.64770508 5.44775391 C-24.13924079 4.80192683 -21.63212371 4.15101097 -19.125 3.5 C-18.26068359 3.27828125 -17.39636719 3.0565625 -16.50585938 2.828125 C-13.04327256 1.9259951 -9.75661239 1.06777406 -6.46875 -0.359375 C-3.76762134 -1.31847141 -2.66601423 -0.97548656 0 0 Z " fill="#F9F9F9" transform="translate(131.3125,189.125)"/>
<path d="M0 0 C6.74777958 5.58285346 11.15571597 12.77947054 12.33984375 21.50390625 C12.60559316 28.29646129 11.04159986 34.91680028 8 41 C6.33388095 41.042721 4.66617115 41.04063832 3 41 C2.67 40.67 2.34 40.34 2 40 C2.24094576 37.93475059 2.48247125 35.86956751 2.7265625 33.8046875 C3.56972652 25.15623374 4.19610658 18.24305766 -1 11 C-1.33 10.01 -1.66 9.02 -2 8 C-4.29534258 6.86454438 -4.29534258 6.86454438 -7 6 C-8.13695312 5.48179688 -8.13695312 5.48179688 -9.296875 4.953125 C-12.36426454 3.8715599 -14.75586915 3.76698286 -18 3.8125 C-19.010625 3.81894531 -20.02125 3.82539063 -21.0625 3.83203125 C-23.80510945 3.98885599 -26.32667311 4.38572452 -29 5 C-29.33 4.34 -29.66 3.68 -30 3 C-29.34 2.67 -28.68 2.34 -28 2 C-28 1.01 -28 0.02 -28 -1 C-27.67 -1.99 -27.34 -2.98 -27 -4 C-17.28610005 -6.59037332 -8.62652934 -5.08561234 0 0 Z " fill="#0C0C0C" transform="translate(225,10)"/>
<path d="M0 0 C1.2065625 0.0309375 1.2065625 0.0309375 2.4375 0.0625 C2.91058594 1.02027344 3.38367187 1.97804688 3.87109375 2.96484375 C4.53854454 4.31015293 5.20655898 5.65518256 5.875 7 C6.22755859 7.70987061 6.58011719 8.41974121 6.94335938 9.15112305 C8.89964218 13.06582995 10.89793974 16.95130149 12.97265625 20.8046875 C13.38394775 21.56918213 13.79523926 22.33367676 14.21899414 23.12133789 C15.02131743 24.60525821 15.82897089 26.08631093 16.64233398 27.56420898 C19.4375 32.73498888 19.4375 32.73498888 19.4375 36.0625 C18.7775 36.0625 18.1175 36.0625 17.4375 36.0625 C17.1075 37.0525 16.7775 38.0425 16.4375 39.0625 C15.4475 39.0625 14.4575 39.0625 13.4375 39.0625 C8.50927164 30.40587352 3.60107879 21.74563895 -0.6875 12.75 C-1.52667969 10.99236328 -1.52667969 10.99236328 -2.3828125 9.19921875 C-3.51520679 6.18824983 -3.92084454 4.23558311 -3.5625 1.0625 C-2.5625 0.0625 -2.5625 0.0625 0 0 Z " fill="#0B0B0B" transform="translate(59.5625,122.9375)"/>
<path d="M0 0 C21.12 0 42.24 0 64 0 C64 0.33 64 0.66 64 1 C62.15148437 1.23783203 62.15148437 1.23783203 60.265625 1.48046875 C49.00499544 2.99615487 49.00499544 2.99615487 38.375 6.875 C34.53353146 8.65454299 32.49395868 9.38304567 28.4375 8 C26.95432823 7.34229187 25.47528358 6.67521614 24 6 C16.13067764 3.47359697 8.17734165 2.10504617 0 1 C0 0.67 0 0.34 0 0 Z " fill="#F4F4F4" transform="translate(96,0)"/>
<path d="M0 0 C4.78717459 0.15468761 7.00733088 2.49701646 10.25 5.8125 C11.12140625 6.68519531 11.9928125 7.55789062 12.890625 8.45703125 C15.87207528 12.0513352 15.87207528 12.0513352 16 15 C14 17 14 17 11.703125 17.41796875 C7.8861507 16.82777186 6.41998845 15.05043726 3.75 12.3125 C2.87859375 11.44238281 2.0071875 10.57226562 1.109375 9.67578125 C-1.04135549 6.94753979 -1.88241461 5.45113119 -2 2 C-1.34 1.34 -0.68 0.68 0 0 Z " fill="#101010" transform="translate(89,99)"/>
<path d="M0 0 C0.70511719 0.27070312 1.41023437 0.54140625 2.13671875 0.8203125 C2.8359375 2.5703125 2.8359375 2.5703125 3.13671875 4.8203125 C1.84375 6.8203125 1.84375 6.8203125 -0.05078125 8.8203125 C-0.70175781 9.51125 -1.35273438 10.2021875 -2.0234375 10.9140625 C-2.63058594 11.543125 -3.23773438 12.1721875 -3.86328125 12.8203125 C-4.56453125 13.6453125 -5.26578125 14.4703125 -5.98828125 15.3203125 C-7.86328125 16.8203125 -7.86328125 16.8203125 -10.55078125 17.1328125 C-12.86328125 16.8203125 -12.86328125 16.8203125 -13.86328125 15.8203125 C-14.25 13.625 -14.25 13.625 -13.86328125 10.8203125 C-12.18645208 8.61782235 -10.63781549 6.84941762 -8.67578125 4.9453125 C-8.19302734 4.43484375 -7.71027344 3.924375 -7.21289062 3.3984375 C-3.56618008 -0.22379848 -3.56618008 -0.22379848 0 0 Z " fill="#0F0F0F" transform="translate(165.86328125,99.1796875)"/>
<path d="M0 0 C8.58 0 17.16 0 26 0 C26 0.66 26 1.32 26 2 C22.05224451 5.01152889 17.82887072 7.54278232 13 8.75 C8.17112928 7.54278232 3.94775549 5.01152889 0 2 C0 1.34 0 0.68 0 0 Z " fill="#F1F1F1" transform="translate(115,155)"/>
<path d="M0 0 C3.67420866 0.30618405 4.78135513 0.75771784 7.3125 3.5625 C8.1478125 4.7690625 8.1478125 4.7690625 9 6 C6.525 7.485 6.525 7.485 4 9 C2.35 8.01 0.7 7.02 -1 6 C-0.67 4.02 -0.34 2.04 0 0 Z " fill="#040404" transform="translate(197,215)"/>
<path d="M0 0 C1.2065625 0.0309375 1.2065625 0.0309375 2.4375 0.0625 C2.7675 0.7225 3.0975 1.3825 3.4375 2.0625 C1.99974304 5.28033702 0.39332488 8.12876269 -1.5625 11.0625 C-3.15805725 7.57221852 -3.88299797 4.90847567 -3.5625 1.0625 C-2.5625 0.0625 -2.5625 0.0625 0 0 Z " fill="#111111" transform="translate(59.5625,122.9375)"/>
<path d="M0 0 C0.66 0.33 1.32 0.66 2 1 C1.401875 1.53625 0.80375 2.0725 0.1875 2.625 C-2.21315594 5.23142645 -3.54018514 7.7884073 -5 11 C-5.66 10.67 -6.32 10.34 -7 10 C-5.6062718 5.56541027 -3.39417765 3.12621626 0 0 Z " fill="#E0E0E0" transform="translate(213,35)"/>
<path d="M0 0 C0.99 0.33 1.98 0.66 3 1 C3 1.66 3 2.32 3 3 C0.69 4.32 -1.62 5.64 -4 7 C-4 4 -4 4 -2 1.8125 C-1.34 1.214375 -0.68 0.61625 0 0 Z " fill="#F3F3F3" transform="translate(98,240)"/>
</svg>
